<?xml version="1.0" encoding="utf-8"?>
<!-- Generator: Adobe Illustrator 22.1.0, SVG Export Plug-In . SVG Version: 6.00 Build 0)  -->
<svg version="1.1" id="Isolation_Mode" xmlns="http://www.w3.org/2000/svg" xmlns:xlink="http://www.w3.org/1999/xlink" x="0px"
	 y="0px" viewBox="0 0 32 32" style="enable-background:new 0 0 32 32;" xml:space="preserve">
<style type="text/css">
	.st0{fill:none;stroke:#203C80;stroke-width:1.44;stroke-linecap:round;stroke-linejoin:round;stroke-miterlimit:22.9256;}
</style>
<g>
	<path class="st0" d="M29.5,16.9V28c0,0.5-0.5,1-1,1h-25c-0.5,0-1-0.4-1-1V17.1 M11.5,7.4V4.6c0-0.9,0.7-1.6,1.6-1.6h5.8
		c0.9,0,1.6,0.7,1.6,1.6v2.8 M13.2,19.1C9,18.9,4.8,18.1,1,16.3l0-7.8c0-0.5,0.5-1,1-1h28c0.6,0,1,0.4,1,1l0,7.6
		c-3.8,2-8.1,2.8-12.4,3 M14.2,17.7h3.6c0.3,0,0.6,0.2,0.6,0.5v2.4c0,0.3-0.3,0.5-0.6,0.5h-3.6c-0.3,0-0.6-0.2-0.6-0.5v-2.4
		C13.6,18,13.9,17.7,14.2,17.7L14.2,17.7z"/>
</g>
</svg>
