<?xml version="1.0" encoding="utf-8"?>
<!DOCTYPE svg PUBLIC "-//W3C//DTD SVG 1.1//EN" "http://www.w3.org/Graphics/SVG/1.1/DTD/svg11.dtd">
<svg version="1.1" id="Layer_1" xmlns="http://www.w3.org/2000/svg" xmlns:xlink="http://www.w3.org/1999/xlink" x="0px" y="0px"
	 width="35px" height="35px" viewBox="0 0 35 35" enable-background="new 0 0 35 35" xml:space="preserve">
<g>

		<path fill="none" stroke="#334D5E" stroke-width="1.2" stroke-linecap="round" stroke-linejoin="round" stroke-miterlimit="22.926" d="
		M23.1,12.9c-0.9,3.1-3.4,5.4-5.7,5.5c-2.3-0.1-4.8-2.4-5.7-5.5L11.3,13c-0.5,0.1-1-0.3-1-0.8L9.9,9.4c-0.1-0.5,0.3-1,0.8-1l0.3,0
		c-0.1-0.4-0.2-0.9-0.2-1.4v-1c0-2.5,2-4.5,4.5-4.5h0.5c0-0.1,0-0.2,0-0.2C16.1,0.4,18,0.4,20,1.2c0.4,0.2,0.8,0.3,1.2,0.5
		C22.8,2.4,24,4,24,5.9v1c0,0.5-0.1,0.9-0.2,1.4l0.3,0c0.5,0.1,0.8,0.5,0.8,1l-0.4,2.8c-0.1,0.5-0.5,0.8-1,0.8L23.1,12.9z"/>

		<line fill="none" stroke="#334D5E" stroke-width="1.2" stroke-linecap="round" stroke-linejoin="round" stroke-miterlimit="22.926" x1="28.2" y1="31.7" x2="23.3" y2="31.7"/>

		<path fill="none" stroke="#334D5E" stroke-width="1.2" stroke-linecap="round" stroke-linejoin="round" stroke-miterlimit="22.926" d="
		M1.4,34.4L0.6,27v-0.8c0-1.7,1.8-2.7,3.2-3c1.3-0.3,6.3-1.4,8-2.5l0.1,0l2.9,13.8l1.8-9.1l-1.5-3.8h4.8l-1.5,3.8l1.7,9.1l3-13.8
		l0.1,0c1.6,1.1,6.6,2.2,8,2.5c1.5,0.3,3.2,1.3,3.2,3V27l-0.8,7.4"/>
</g>
</svg>
