<?xml version="1.0" encoding="utf-8"?>
<!DOCTYPE svg PUBLIC "-//W3C//DTD SVG 1.1//EN" "http://www.w3.org/Graphics/SVG/1.1/DTD/svg11.dtd">
<svg version="1.1" id="Layer_1" xmlns="http://www.w3.org/2000/svg" xmlns:xlink="http://www.w3.org/1999/xlink" x="0px" y="0px"
	 width="35.7px" height="33.6px" viewBox="0 0 35.7 33.6" enable-background="new 0 0 35.7 33.6" xml:space="preserve">
<path fill="none" stroke="#324C5E" stroke-width="1.44" stroke-linecap="round" stroke-linejoin="round" stroke-miterlimit="22.926" d="
	M1.8,1.4h6.6c0.6,0,1.1,0.5,1.1,1.1v29.3c0,0.6-0.5,1.1-1.1,1.1H1.8c-0.6,0-1.1-0.5-1.1-1.1V2.5C0.7,1.9,1.2,1.4,1.8,1.4z"/>
<circle fill="none" stroke="#324C5E" stroke-width="1.44" stroke-linecap="round" stroke-linejoin="round" stroke-miterlimit="22.926" cx="5.1" cy="25" r="2.4"/>
<rect x="3" y="4" fill="none" stroke="#324C5E" stroke-width="1.44" stroke-linecap="round" stroke-linejoin="round" stroke-miterlimit="22.926" width="4.2" height="14.1"/>
<path fill="none" stroke="#324C5E" stroke-width="1.44" stroke-linecap="round" stroke-linejoin="round" stroke-miterlimit="22.926" d="
	M10.8,1.4h6.6c0.6,0,1.1,0.5,1.1,1.1v29.3c0,0.6-0.5,1.1-1.1,1.1h-6.6c-0.6,0-1.1-0.5-1.1-1.1V2.5C9.7,1.9,10.2,1.4,10.8,1.4z"/>
<circle fill="none" stroke="#324C5E" stroke-width="1.44" stroke-linecap="round" stroke-linejoin="round" stroke-miterlimit="22.926" cx="14.1" cy="25" r="2.4"/>
<rect x="12" y="4" fill="none" stroke="#324C5E" stroke-width="1.44" stroke-linecap="round" stroke-linejoin="round" stroke-miterlimit="22.926" width="4.2" height="14.1"/>
<path fill="none" stroke="#324C5E" stroke-width="1.44" stroke-linecap="round" stroke-linejoin="round" stroke-miterlimit="22.926" d="
	M19.6,2.5L26,0.8c0.6-0.2,1.2,0.2,1.3,0.8l7.6,28.3c0.2,0.6-0.2,1.2-0.8,1.3l-6.4,1.7c-0.6,0.2-1.2-0.2-1.3-0.8L18.9,3.8
	C18.7,3.2,19,2.6,19.6,2.5z"/>
<circle fill="none" stroke="#324C5E" stroke-width="1.44" stroke-linecap="round" stroke-linejoin="round" stroke-miterlimit="22.926" cx="28.9" cy="24.4" r="2.4"/>
<rect x="23.2" y="3.9" transform="matrix(-0.9659 0.259 -0.259 -0.9659 52.5826 14.8532)" fill="none" stroke="#324C5E" stroke-width="1.44" stroke-linecap="round" stroke-linejoin="round" stroke-miterlimit="22.926" width="4.2" height="14.1"/>
</svg>
